<svg width="35" height="35" viewBox="0 0 35 35" fill="none" xmlns="http://www.w3.org/2000/svg">
<path d="M17.5 0.84375C14.2057 0.84375 10.9854 1.82062 8.24629 3.65083C5.50718 5.48105 3.37231 8.0824 2.11164 11.1259C0.850967 14.1695 0.521118 17.5185 1.1638 20.7495C1.80649 23.9805 3.39284 26.9483 5.72226 29.2777C8.05168 31.6072 11.0195 33.1935 14.2505 33.8362C17.4815 34.4789 20.8305 34.149 23.8741 32.8884C26.9176 31.6277 29.519 29.4928 31.3492 26.7537C33.1794 24.0146 34.1563 20.7943 34.1563 17.5C34.1516 13.0839 32.3952 8.85005 29.2726 5.7274C26.15 2.60476 21.9161 0.848413 17.5 0.84375ZM24.8127 14.5627L15.844 23.5315C15.725 23.6506 15.5837 23.7451 15.4281 23.8096C15.2726 23.8741 15.1059 23.9073 14.9375 23.9073C14.7691 23.9073 14.6024 23.8741 14.4469 23.8096C14.2913 23.7451 14.15 23.6506 14.031 23.5315L10.1873 19.6877C9.94686 19.4473 9.8118 19.1212 9.8118 18.7812C9.8118 18.4413 9.94686 18.1152 10.1873 17.8748C10.4277 17.6343 10.7538 17.4993 11.0938 17.4993C11.4338 17.4993 11.7598 17.6343 12.0002 17.8748L14.9375 20.8136L22.9998 12.7498C23.1188 12.6307 23.2601 12.5363 23.4157 12.4719C23.5712 12.4074 23.7379 12.3743 23.9063 12.3743C24.0746 12.3743 24.2413 12.4074 24.3968 12.4719C24.5524 12.5363 24.6937 12.6307 24.8127 12.7498C24.9318 12.8688 25.0262 13.0101 25.0906 13.1657C25.1551 13.3212 25.1882 13.4879 25.1882 13.6562C25.1882 13.8246 25.1551 13.9913 25.0906 14.1468C25.0262 14.3024 24.9318 14.4437 24.8127 14.5627Z" fill="#53937E"/>
</svg>
