<svg width="38" height="44" viewBox="0 0 38 44" fill="none" xmlns="http://www.w3.org/2000/svg"> <path d="M37.0689 12.3686L25.2564 0.556094C25.0996 0.399436 24.9134 0.275213 24.7086 0.19052C24.5037 0.105828 24.2842 0.0623262 24.0625 0.0625005H3.8125C2.91739 0.0625005 2.05895 0.41808 1.42601 1.05101C0.793079 1.68395 0.4375 2.54239 0.4375 3.4375V40.5625C0.4375 41.4576 0.793079 42.316 1.42601 42.949C2.05895 43.5819 2.91739 43.9375 3.8125 43.9375H34.1875C35.0826 43.9375 35.941 43.5819 36.574 42.949C37.2069 42.316 37.5625 41.4576 37.5625 40.5625V13.5625C37.5627 13.3408 37.5192 13.1213 37.4345 12.9164C37.3498 12.7116 37.2256 12.5254 37.0689 12.3686ZM24.0625 13.5625V4.28125L33.3438 13.5625H24.0625Z" fill="#305196"/> </svg>