<svg width="55" height="55" viewBox="0 0 55 55" fill="none" xmlns="http://www.w3.org/2000/svg">
<g clip-path="url(#clip0_4159_13779)">
<path d="M19.9139 46.4063H10.3125C9.85666 46.4063 9.41949 46.2252 9.09716 45.9029C8.77483 45.5805 8.59375 45.1434 8.59375 44.6875V35.0862C8.59396 34.6309 8.77476 34.1944 9.09648 33.8723L35.591 7.37777C35.9133 7.05568 36.3503 6.87476 36.806 6.87476C37.2616 6.87476 37.6986 7.05568 38.0209 7.37777L47.6223 16.9727C47.9444 17.295 48.1253 17.732 48.1253 18.1876C48.1253 18.6433 47.9444 19.0803 47.6223 19.4026L21.1277 45.9036C20.8057 46.2253 20.3691 46.4061 19.9139 46.4063Z" stroke="#305196" stroke-width="2" stroke-linecap="round" stroke-linejoin="round"/>
<path d="M29.2188 13.75L41.25 25.7812" stroke="#305196" stroke-width="2" stroke-linecap="round" stroke-linejoin="round"/>
<path d="M35.2344 19.7656L14.6094 40.3906" stroke="#305196" stroke-width="2" stroke-linecap="round" stroke-linejoin="round"/>
<path d="M20.5155 46.2967L8.70337 34.4846" stroke="#305196" stroke-width="2" stroke-linecap="round" stroke-linejoin="round"/>
</g>
<defs>
<clipPath id="clip0_4159_13779">
<rect width="55" height="55" fill="white"/>
</clipPath>
</defs>
</svg>
