<svg width="35" height="35" viewBox="0 0 35 35" fill="none" xmlns="http://www.w3.org/2000/svg">
<path d="M17.5 0.84375C14.2057 0.84375 10.9854 1.82062 8.24629 3.65083C5.50718 5.48105 3.37231 8.0824 2.11164 11.1259C0.850967 14.1695 0.521118 17.5185 1.1638 20.7495C1.80649 23.9805 3.39284 26.9483 5.72226 29.2777C8.05168 31.6072 11.0195 33.1935 14.2505 33.8362C17.4815 34.4789 20.8305 34.149 23.8741 32.8884C26.9176 31.6277 29.519 29.4928 31.3492 26.7537C33.1794 24.0146 34.1563 20.7943 34.1563 17.5C34.1516 13.0839 32.3952 8.85005 29.2726 5.7274C26.15 2.60476 21.9161 0.848413 17.5 0.84375ZM22.9357 10.2529L25.6584 7.53027C25.8988 7.28986 26.2249 7.1548 26.5649 7.1548C26.9049 7.1548 27.2309 7.28986 27.4713 7.53027C27.7118 7.77069 27.8468 8.09676 27.8468 8.43676C27.8468 8.77676 27.7118 9.10283 27.4713 9.34324L24.7487 12.0659C24.5064 12.296 24.1839 12.4224 23.8498 12.4182C23.5157 12.4139 23.1965 12.2793 22.9602 12.043C22.7239 11.8067 22.5893 11.4875 22.585 11.1534C22.5808 10.8193 22.7072 10.4968 22.9373 10.2545L22.9357 10.2529ZM4.68751 18.7812C4.3477 18.7812 4.02181 18.6463 3.78153 18.406C3.54125 18.1657 3.40626 17.8398 3.40626 17.5C3.40626 17.1602 3.54125 16.8343 3.78153 16.594C4.02181 16.3537 4.3477 16.2188 4.68751 16.2188H8.53126C8.87107 16.2188 9.19696 16.3537 9.43724 16.594C9.67752 16.8343 9.81251 17.1602 9.81251 17.5C9.81251 17.8398 9.67752 18.1657 9.43724 18.406C9.19696 18.6463 8.87107 18.7812 8.53126 18.7812H4.68751ZM12.0643 24.7471L9.34165 27.4697C9.22261 27.5888 9.08128 27.6832 8.92575 27.7476C8.77022 27.812 8.60351 27.8452 8.43516 27.8452C8.26681 27.8452 8.10011 27.812 7.94458 27.7476C7.78904 27.6832 7.64772 27.5888 7.52868 27.4697C7.40964 27.3507 7.31521 27.2094 7.25078 27.0538C7.18636 26.8983 7.1532 26.7316 7.1532 26.5632C7.1532 26.3949 7.18636 26.2282 7.25078 26.0727C7.31521 25.9171 7.40964 25.7758 7.52868 25.6568L10.2513 22.9341C10.4936 22.704 10.8161 22.5776 11.1502 22.5818C11.4843 22.5861 11.8035 22.7207 12.0398 22.957C12.2761 23.1933 12.4107 23.5125 12.415 23.8466C12.4192 24.1807 12.2928 24.5032 12.0627 24.7455L12.0643 24.7471ZM12.0643 12.0643C11.824 12.3044 11.4983 12.4393 11.1586 12.4393C10.819 12.4393 10.4932 12.3044 10.2529 12.0643L7.53028 9.34164C7.41155 9.22239 7.31748 9.08092 7.25343 8.92531C7.18937 8.7697 7.1566 8.603 7.15697 8.43473C7.15772 8.09488 7.29345 7.76925 7.53429 7.52947C7.77512 7.2897 8.10135 7.15541 8.4412 7.15616C8.78104 7.15691 9.10667 7.29264 9.34645 7.53348L12.0691 10.2561C12.3076 10.4969 12.441 10.8223 12.4401 11.1612C12.4392 11.5001 12.3041 11.8248 12.0643 12.0643ZM18.7813 30.3125C18.7813 30.6523 18.6463 30.9782 18.406 31.2185C18.1657 31.4588 17.8398 31.5938 17.5 31.5938C17.1602 31.5938 16.8343 31.4588 16.594 31.2185C16.3537 30.9782 16.2188 30.6523 16.2188 30.3125V26.4688C16.2188 26.1289 16.3537 25.803 16.594 25.5628C16.8343 25.3225 17.1602 25.1875 17.5 25.1875C17.8398 25.1875 18.1657 25.3225 18.406 25.5628C18.6463 25.803 18.7813 26.1289 18.7813 26.4688V30.3125ZM18.7813 8.53125C18.7813 8.87106 18.6463 9.19695 18.406 9.43723C18.1657 9.67751 17.8398 9.8125 17.5 9.8125C17.1602 9.8125 16.8343 9.67751 16.594 9.43723C16.3537 9.19695 16.2188 8.87106 16.2188 8.53125V4.6875C16.2188 4.34769 16.3537 4.0218 16.594 3.78152C16.8343 3.54124 17.1602 3.40625 17.5 3.40625C17.8398 3.40625 18.1657 3.54124 18.406 3.78152C18.6463 4.0218 18.7813 4.34769 18.7813 4.6875V8.53125ZM27.4665 27.4665C27.3475 27.5856 27.2062 27.6802 27.0507 27.7446C26.8951 27.8091 26.7284 27.8423 26.56 27.8423C26.3917 27.8423 26.2249 27.8091 26.0694 27.7446C25.9139 27.6802 25.7726 27.5856 25.6536 27.4665L22.9309 24.7439C22.7008 24.5016 22.5744 24.1791 22.5786 23.845C22.5829 23.5109 22.7175 23.1917 22.9538 22.9554C23.1901 22.7191 23.5093 22.5845 23.8434 22.5802C24.1775 22.576 24.5 22.7024 24.7423 22.9325L27.4649 25.6552C27.7052 25.8952 27.8404 26.2208 27.8407 26.5605C27.841 26.9002 27.7064 27.2261 27.4665 27.4665ZM30.3125 18.7812H26.4688C26.1289 18.7812 25.8031 18.6463 25.5628 18.406C25.3225 18.1657 25.1875 17.8398 25.1875 17.5C25.1875 17.1602 25.3225 16.8343 25.5628 16.594C25.8031 16.3537 26.1289 16.2188 26.4688 16.2188H30.3125C30.6523 16.2188 30.9782 16.3537 31.2185 16.594C31.4588 16.8343 31.5938 17.1602 31.5938 17.5C31.5938 17.8398 31.4588 18.1657 31.2185 18.406C30.9782 18.6463 30.6523 18.7812 30.3125 18.7812Z" fill="#B5B7C0"/>
</svg>
